<svg width="274" height="276" viewBox="0 0 274 276" fill="none" xmlns="http://www.w3.org/2000/svg">
<g style="mix-blend-mode:multiply" opacity="0.05">
<path fill-rule="evenodd" clip-rule="evenodd" d="M142.972 21.7403C118.974 22.5325 101.13 41.6068 80.0807 53.2024C54.9904 67.0244 19.6496 69.8246 8.03018 96.0781C-3.61763 122.396 8.26625 154.99 24.5313 178.713C38.8228 199.557 69.0026 199.231 89.1671 214.417C109.866 230.006 118.38 259.828 142.972 267.911C171.446 277.271 209.112 282.022 230.375 260.833C252.047 239.236 232.005 201.291 239.616 171.605C246.449 144.95 278.805 124.659 272.129 97.9644C265.486 71.3997 232.465 62.8308 208.942 48.9486C187.934 36.5504 167.329 20.9362 142.972 21.7403Z" fill="#0C084F"/>
</g>
<path opacity="0.6" fill-rule="evenodd" clip-rule="evenodd" d="M139.643 0.654827C115.645 1.44701 97.8004 20.5213 76.7515 32.1169C51.6612 45.9389 16.3204 48.7392 4.70096 74.9926C-6.94686 101.31 4.93703 133.905 21.2021 157.627C35.4936 178.472 65.6733 178.146 85.8379 193.332C106.537 208.92 115.05 238.742 139.643 246.826C168.117 256.185 205.783 260.936 227.046 239.748C248.718 218.151 228.676 180.205 236.287 150.519C243.12 123.865 275.476 103.573 268.8 76.879C262.157 50.3143 229.135 41.7453 205.613 27.8632C184.605 15.4649 164 -0.149221 139.643 0.654827Z" fill="#F9FAFF"/>
<g style="mix-blend-mode:multiply">
<path fill-rule="evenodd" clip-rule="evenodd" d="M153.047 40.5995C134.185 41.2187 120.159 56.1283 103.614 65.1921C83.8932 75.9962 56.1151 78.1851 46.9821 98.7063C37.8268 119.278 47.1677 144.755 59.9521 163.299C71.1854 179.592 94.9069 179.337 110.756 191.207C127.026 203.392 133.718 226.703 153.047 233.021C175.428 240.337 205.034 244.051 221.747 227.489C238.782 210.607 223.028 180.947 229.01 157.742C234.382 136.908 259.813 121.047 254.566 100.181C249.344 79.4163 223.389 72.7183 204.9 61.8671C188.388 52.1759 172.192 39.971 153.047 40.5995Z" fill="#00C48C"/>
</g>
</svg>
