<svg width="481" height="485" viewBox="0 0 481 485" fill="none" xmlns="http://www.w3.org/2000/svg">
<g style="mix-blend-mode:multiply">
<path fill-rule="evenodd" clip-rule="evenodd" d="M228.934 38.2572C271.175 39.6488 302.585 73.1554 339.636 93.5246C383.801 117.805 446.008 122.724 466.461 168.841C486.964 215.072 466.046 272.328 437.415 314C412.259 350.616 359.136 350.043 323.642 376.72C287.207 404.103 272.221 456.489 228.934 470.689C178.812 487.131 112.512 495.476 75.0844 458.256C36.9357 420.318 72.2142 353.661 58.8178 301.514C46.7897 254.692 -10.1637 219.047 1.58727 172.155C13.2811 125.491 71.4062 110.438 112.811 86.0523C149.79 64.2731 186.059 36.8448 228.934 38.2572Z" fill="url(#paint0_radial)"/>
</g>
<path opacity="0.6" fill-rule="evenodd" clip-rule="evenodd" d="M234.69 0.0523956C276.932 1.44397 308.342 34.9505 345.393 55.3197C389.557 79.5999 451.765 84.5189 472.218 130.637C492.721 176.867 471.802 234.123 443.172 275.795C418.016 312.411 364.893 311.839 329.399 338.515C292.964 365.898 277.978 418.284 234.69 432.484C184.569 448.926 118.268 457.271 80.8412 420.051C42.6925 382.113 77.971 315.457 64.5747 263.309C52.5465 216.487 -4.40684 180.843 7.3441 133.95C19.0379 87.2858 77.163 72.2333 118.568 47.8474C155.547 26.0683 191.816 -1.36002 234.69 0.0523956Z" fill="#F7F2F3"/>
<path opacity="0.74" fill-rule="evenodd" clip-rule="evenodd" d="M201.997 61.6661C235.204 62.7575 259.896 89.0364 289.022 105.012C323.74 124.054 372.642 127.912 388.72 164.082C404.837 200.34 388.393 245.246 365.887 277.929C346.111 306.646 304.351 306.197 276.448 327.119C247.807 348.595 236.026 389.681 201.997 400.818C162.597 413.713 110.477 420.259 81.0554 391.067C51.0665 361.313 78.7992 309.035 68.2682 268.136C58.8127 231.414 14.0413 203.458 23.2788 166.681C32.4714 130.082 78.164 118.277 110.713 99.1513C139.782 82.0701 168.294 60.5583 201.997 61.6661Z" fill="#FFC12C"/>
<defs>
<radialGradient id="paint0_radial" cx="0" cy="0" r="1" gradientUnits="userSpaceOnUse" gradientTransform="translate(237.341 261.415) rotate(90) scale(223.21 237.341)">
<stop stop-color="white"/>
<stop offset="1" stop-color="#FAFAFA"/>
</radialGradient>
</defs>
</svg>
