<svg width="20" height="20" viewBox="0 0 20 20" fill="none" xmlns="http://www.w3.org/2000/svg">
<g clip-path="url(#clip0)">
<path d="M17.9151 8.09118L4.26691 0.289787C3.93525 0.100181 3.55791 0 3.17585 0C2.78882 0 2.4073 0.10267 2.07253 0.296898C1.39695 0.688821 0.977295 1.41747 0.977295 2.19856V17.8014C0.977295 18.5824 1.39695 19.3111 2.07235 19.703C2.40712 19.8974 2.78873 20.0001 3.17576 20.0001C3.55764 20.0001 3.93499 19.8998 4.26682 19.7102L17.9148 11.9087C18.598 11.5181 19.0224 10.7868 19.0224 9.99995C19.0224 9.21308 18.5982 8.48177 17.9151 8.09118ZM12.0008 6.2465L10.1269 8.85671L5.64455 2.61315L12.0008 6.2465ZM3.08981 18.6591C2.96793 18.6472 2.84838 18.6117 2.74162 18.5497C2.47583 18.3955 2.31067 18.1087 2.31067 17.8014V2.19847C2.31067 1.89117 2.47583 1.6044 2.74171 1.45018C2.84811 1.3884 2.96669 1.3516 3.08856 1.33906L9.30618 9.99995L3.08981 18.6591ZM5.64455 17.3868L10.1269 11.1432L12.0008 13.7534L5.64455 17.3868ZM17.2533 10.751L13.1646 13.0881L10.9476 9.99995L13.1646 6.91177L17.2533 9.2489C17.5221 9.4026 17.6891 9.69034 17.6891 9.99995C17.6891 10.3096 17.5222 10.5974 17.2533 10.751Z" fill="url(#paint0_radial)"/>
</g>
<defs>
<radialGradient id="paint0_radial" cx="0" cy="0" r="1" gradientUnits="userSpaceOnUse" gradientTransform="translate(9.99984 10) rotate(90) scale(10 9.02255)">
<stop stop-color="white"/>
<stop offset="1" stop-color="#FAFAFA"/>
</radialGradient>
<clipPath id="clip0">
<rect width="20" height="20" fill="white"/>
</clipPath>
</defs>
</svg>
