<svg width="37" height="37" viewBox="0 0 37 37" fill="none" xmlns="http://www.w3.org/2000/svg">
<path opacity="0.3" fill-rule="evenodd" clip-rule="evenodd" d="M6.16675 6.16673L17.9319 3.96077C18.3074 3.89036 18.6928 3.89036 19.0683 3.96077L30.8334 6.16673V20.478C30.8334 25.0019 28.5029 29.2066 24.6667 31.6042L19.3172 34.9477C18.8172 35.2602 18.1829 35.2602 17.683 34.9477L12.3334 31.6042C8.49721 29.2066 6.16675 25.0019 6.16675 20.478V6.16673Z" fill="#BDBDBD"/>
<path fill-rule="evenodd" clip-rule="evenodd" d="M17.2282 22.7396C16.8588 22.7396 16.4895 22.5918 16.194 22.2964L13.2391 19.3415C12.6482 18.7505 12.6482 17.8641 13.2391 17.2731C13.8301 16.6821 14.7904 16.6821 15.3075 17.2731L17.2282 19.1937L22.1037 14.3182C22.6947 13.7273 23.5811 13.7273 24.1721 14.3182C24.7631 14.9092 24.7631 15.7957 24.1721 16.3866L18.2624 22.2964C17.9669 22.5918 17.5975 22.7396 17.2282 22.7396Z" fill="#133996"/>
</svg>
