<svg width="37" height="37" viewBox="0 0 37 37" fill="none" xmlns="http://www.w3.org/2000/svg">
<path fill-rule="evenodd" clip-rule="evenodd" d="M25.2434 30.7391L34.26 17.2142C34.6142 16.6829 34.4706 15.965 33.9393 15.6108C33.7493 15.4842 33.5262 15.4166 33.2979 15.4166H26.2084V6.9021C26.2084 6.26352 25.6907 5.74585 25.0521 5.74585C24.6655 5.74585 24.3045 5.93906 24.0901 6.26073L15.0735 19.7856C14.7192 20.317 14.8628 21.0349 15.3942 21.3891C15.5841 21.5157 15.8073 21.5833 16.0355 21.5833H23.125V30.0978C23.125 30.7363 23.6427 31.254 24.2813 31.254C24.6679 31.254 25.0289 31.0608 25.2434 30.7391Z" fill="#133996"/>
<path opacity="0.3" fill-rule="evenodd" clip-rule="evenodd" d="M6.93758 7.70825H14.6459C15.9231 7.70825 16.9584 8.74359 16.9584 10.0208C16.9584 11.2979 15.9231 12.3333 14.6459 12.3333H6.93758C5.66042 12.3333 4.62508 11.2979 4.62508 10.0208C4.62508 8.74359 5.66042 7.70825 6.93758 7.70825ZM6.93758 26.2083H14.6459C15.9231 26.2083 16.9584 27.2436 16.9584 28.5208C16.9584 29.7979 15.9231 30.8333 14.6459 30.8333H6.93758C5.66042 30.8333 4.62508 29.7979 4.62508 28.5208C4.62508 27.2436 5.66042 26.2083 6.93758 26.2083ZM3.85425 16.9583H10.0209C11.2981 16.9583 12.3334 17.9936 12.3334 19.2708C12.3334 20.5479 11.2981 21.5833 10.0209 21.5833H3.85425C2.57709 21.5833 1.54175 20.5479 1.54175 19.2708C1.54175 17.9936 2.57709 16.9583 3.85425 16.9583Z" fill="black"/>
</svg>
